# xmcd
#
# Track frame offsets:
# 150
# 17600
# 37679
# 53781
#
# Disc length: 1048 seconds
#
#
# Revision: 2
# Processed by: cddbd v1.5.2PL0 Copyright (c) Steve Scherf et al.
# Submitted via: FreeRIP 2.53 
#
DISCID=21041604
DTITLE=NANA - dreams
DYEAR=1991
DGENRE=JPop
TTITLE0=dreams - single version
TTITLE1=dreams - album version
TTITLE2=nigga 4 life
TTITLE3=judgament day
EXTD=YEAR: 1991
EXTT0=
EXTT1=
EXTT2=
EXTT3=
PLAYORDER=
